<svg xmlns="http://www.w3.org/2000/svg" width="32" height="32" fill="currentColor" viewBox="0 0 24 24">
  <path d="M12 2.2c3.2 0 3.584.012 4.85.07 1.17.056 1.97.24 2.43.41.59.22 1.01.48 1.45.92.44.44.7.86.92 1.45.17.46.354 1.26.41 2.43.058 1.266.07 1.65.07 4.85s-.012 3.584-.07 4.85c-.056 1.17-.24 1.97-.41 2.43-.22.59-.48 1.01-.92 1.45-.44.44-.86.7-1.45.92-.46.17-1.26.354-2.43.41-1.266.058-1.65.07-4.85.07s-3.584-.012-4.85-.07c-1.17-.056-1.97-.24-2.43-.41-.59-.22-1.01-.48-1.45-.92-.44-.44-.7-.86-.92-1.45-.17-.46-.354-1.26-.41-2.43C2.212 15.784 2.2 15.4 2.2 12s.012-3.584.07-4.85c.056-1.17.24-1.97.41-2.43.22-.59.48-1.01.92-1.45.44-.44.86-.7 1.45-.92.46-.17 1.26-.354 2.43-.41C8.416 2.212 8.8 2.2 12 2.2zm0-2.2C8.736 0 8.332.012 7.052.07 5.77.128 4.87.31 4.13.54c-.77.24-1.42.56-2.07 1.21C1.31 2.87.99 3.52.75 4.29c-.23.74-.41 1.64-.47 2.92C.012 8.332 0 8.736 0 12c0 3.264.012 3.668.07 4.948.058 1.28.24 2.18.47 2.92.24.77.56 1.42 1.21 2.07.65.65 1.3.97 2.07 1.21.74.23 1.64.41 2.92.47C8.332 23.988 8.736 24 12 24s3.668-.012 4.948-.07c1.28-.058 2.18-.24 2.92-.47.77-.24 1.42-.56 2.07-1.21.65-.65.97-1.3 1.21-2.07.23-.74.41-1.64.47-2.92.058-1.28.07-1.684.07-4.948s-.012-3.668-.07-4.948c-.058-1.28-.24-2.18-.47-2.92-.24-.77-.56-1.42-1.21-2.07-.65-.65-1.3-.97-2.07-1.21-.74-.23-1.64-.41-2.92-.47C15.668.012 15.264 0 12 0zm0 5.838a6.162 6.162 0 1 0 0 12.324 6.162 6.162 0 0 0 0-12.324zm0 10.162a3.999 3.999 0 1 1 0-7.998 3.999 3.999 0 0 1 0 7.998zm7.844-10.406a1.44 1.44 0 1 0 0 2.88 1.44 1.44 0 0 0 0-2.88z"/>
</svg>
